<svg xmlns="http://www.w3.org/2000/svg" width="1044" height="142" viewBox="0 0 1044 142" fill="none">
    <path d="M4 87.7511C10.6786 85.7691 30.5058 75.6936 44.0717 75.8587C57.6377 76.0239 68.0731 89.2377 85.3957 88.7421C102.718 88.2466 123.38 72.3075 148.008 72.8856C172.635 73.4637 207.907 94.7709 233.16 92.2108C258.414 89.6506 271.562 55.7904 299.529 57.5247C327.496 59.259 369.655 106.003 400.961 102.617C432.267 99.2306 449.172 33.2444 487.365 37.2085C525.559 41.1726 588.171 127.062 630.121 126.401C672.071 125.741 691.69 31.1797 739.066 33.2444C786.443 35.309 864.29 143.497 914.38 138.789C964.47 134.082 1018.73 27.2982 1039.6 5" stroke="url(#paint0_linear_103_495)" stroke-width="6" stroke-linecap="square" stroke-dasharray="24 14"/>
    <defs>
        <linearGradient id="paint0_linear_103_495" x1="4.30212" y1="-6.53076" x2="1039.6" y2="5" gradientUnits="userSpaceOnUse">
            <stop stop-color="#FCFF6B"/>
            <stop offset="0.620994" stop-color="#D3A8FF"/>
            <stop offset="1" stop-color="#E9E9E9"/>
        </linearGradient>
    </defs>
</svg>